 <svg version="1.0" id="Layer_1" xmlns="http://www.w3.org/2000/svg" xmlns:xlink="http://www.w3.org/1999/xlink" x="0px" y="0px"
                         viewBox="0 0 455.3 185.5" enable-background="new 0 0 455.3 185.5" xml:space="preserve">
                        <g>
                            <path fill="#FEFEFE" d="M0,171.8c0-57,0-113.9,0-170.9C0,0.2,0.1,0,0.9,0c43,0,86.1,0,129.1,0c-0.1,0.1-0.1,0.1-0.2,0.2
                                c-3,1.1-4.4,3-4.4,6.2c0,5.2,0,10.3,0,15.5c0,0.8-0.2,1-1,1c-10.1,0-20.3,0-30.4,0c-0.5,0-1.1,0-1.6,0.1c-2.9,0.6-4.8,3-4.8,6.1
                                c0,25.8,0,51.7,0,77.5c0,1.8,0,3.7,0,5.5c0,0.6-0.1,0.8-0.8,0.8c-1.8,0-3.6-0.1-5.4,0c-0.8,0-1.1-0.2-1.4-1
                                C76.8,100.3,66.6,92,54.6,91.2c-18.2-1.4-33.1,14.5-30.7,32.6c2.8,20.7,26.3,31.6,43.9,20.4c0.8-0.5,1.5-1,2.4-1.6
                                c0,0.5,0,0.8,0,1.2c0,11.7,0,23.4,0,35.1c0,3.8,2.4,6.3,6.3,6.3c8.4,0,16.7,0,25.1,0c3.8,0,6.3-2.4,6.3-6.3c0-7.2,0-14.4,0-21.6
                                c0-0.7,0.2-1,0.9-1c19.5,0,38.9,0,58.4,0c0.8,0,1,0.2,0.9,1c-0.6,6.8-1.1,13.5-1.6,20.3c0,0.7-0.2,0.9-0.9,0.9c-2.3,0-4.7,0-7,0
                                c-2,0-3.4,1.4-3.5,3.5c0,0.5,0,1.1,0,1.6c0,1.5,0.1,1.7,1.7,1.7c17.1,0,34.1,0,51.2,0c0.2,0,0.5,0,0.7,0c0.6,0,1-0.4,1-1
                                c0-0.7,0-1.4,0-2.1c0-2.3-1.4-3.7-3.7-3.7c-2.3,0-4.6,0-6.9,0c-0.5,0-0.7-0.1-0.7-0.6c-0.5-6.9-1.1-13.8-1.6-20.6
                                c-0.1-0.6,0.1-0.8,0.8-0.8c8.4,0,16.7,0,25.1,0c0.7,0,0.8,0.2,0.8,0.8c0,4.5,0,8.9,0,13.4c0,2,0.3,3.8,1.7,5.3c0,0,0,0.1,0,0.2
                                c-3.2,0-6.4,0-9.7,0c-0.6,0-1.2,0.1-1.3,0.7c-0.1,1.6-0.3,3.3,0.1,4.9c0.5,2.3,2.3,3.5,4.9,3.5c48.3,0,96.7,0,145,0
                                c0.2,0,0.4,0,0.5,0c2.5,0,4.5-2,4.5-4.5c0-1,0-2.1,0-3.1c0-1.3-0.2-1.5-1.5-1.5c-3,0-6,0-8.9,0c-0.2,0-0.5,0.1-0.7-0.2
                                c1.4-1.4,1.8-3.1,1.8-5.1c0-8.5,0-17,0-25.6c0-0.7,0.2-1,0.9-1c8.2,0,16.4,0,24.5,0c3.9,0,6.3-2.4,6.3-6.2c0-24.8,0-49.6,0-74.4
                                c0-3.8-2.4-6.3-6.3-6.3c-29.7,0-59.3,0-89,0c-3.8,0-6.3,2.4-6.3,6.3c0,6.9,0,13.9,0,20.8c0,0.7-0.2,0.9-0.9,0.9
                                c-3.7,0-7.5,0-11.2,0c-0.9,0-1.1-0.2-1.1-1.1c0-18.3,0-36.6,0-54.9c0-0.5,0-1.1-0.1-1.6c-0.6-2.9-2.9-4.8-6-4.8
                                c-19.6,0-39.2,0-58.8,0c-0.8,0-1-0.1-1-1c0-5.3,0-10.6,0-15.9c0-1.6-0.5-2.9-1.5-4.1c-0.8-0.9-1.9-1.4-3-1.9
                                c82.6,0,165.2,0,247.8,0c0.7,0,0.8,0.2,0.8,0.8c0,61.3,0,122.5,0,183.8c0,0.7-0.2,0.8-0.8,0.8c-151.2,0-302.4,0-453.6,0
                                c-0.7,0-0.8-0.2-0.8-0.8c0-3.1,0-6.1,0-9.2c0.1,0.1,0.2,0.1,0.2,0.2c0.8,5.1,5.5,9.6,12.1,9.5c14.2-0.2,28.4,0,42.6,0
                                c0.3,0,0.5,0,0.8,0c1-0.1,1.7-0.8,1.8-1.8c0-0.4,0-0.7,0-1.1c0-2-0.6-2.7-2.6-2.9c-1.1-0.1-2.2-0.3-3.3-0.8c-2.1-0.9-3.1-2.6-3.1-5
                                c0-2.3,1-3.9,3.1-4.9c1-0.4,2-0.7,3-0.8c2.3-0.2,2.9-0.8,2.9-3.2c0-0.2,0-0.4,0-0.5c0-1.4-0.7-2.1-2.1-2.1c-14.7,0-29.4,0-44.1,0
                                c-4.2,0-7.4,2-9.7,5.5C0.9,168.9,0.5,170.4,0,171.8z M428.2,185.3c4.2,0,8.3,0,12.5,0c2.2,0,3.9-1.4,4.4-3.5
                                c0.1-0.7,0.2-1.4,0.1-2.1c-0.1-0.9,0.2-1.2,1.1-1.4c5-1.2,8.7-5.8,8.8-10.8c0.2-5.8-3.4-10.5-9.1-11.9c-0.6-0.1-0.8-0.3-0.8-1
                                c0.1-1.3,0-2.7,0-4c0-1.4-0.5-1.9-1.9-1.9c-3.2,0-6.4,0-9.7,0c-0.5,0-0.9-0.1-1.2-0.6c-1.7-2.9-5.7-2.9-7.5,0
                                c-0.3,0.5-0.6,0.6-1.1,0.6c-3.6,0-7.2,0-10.9,0c-1.4,0-1.9,0.5-1.9,1.9c0,10,0,20,0,30c0,2.8,1.9,4.6,4.6,4.6
                                C420,185.3,424.1,185.3,428.2,185.3z M391.1,185.1c3.6,0,7.3,0,10.9,0c0.6,0,0.9-0.2,0.8-0.8c-0.1-0.6-0.1-1.2-0.2-1.8
                                c-1-6.1-6.4-10.3-12.6-9.8c-5.9,0.5-10.6,5.6-10.6,11.6c0,0.6,0.2,0.8,0.8,0.8C383.9,185.1,387.5,185.1,391.1,185.1z"/>
                            <path fill="#934FFE" d="M206.6,0c1.1,0.5,2.2,1,3,1.9c1,1.2,1.5,2.5,1.5,4.1c0,5.3,0,10.6,0,15.9c0,0.8,0.3,1,1,1
                                c19.6,0,39.2,0,58.8,0c3.1,0,5.5,1.9,6,4.8c0.1,0.5,0.1,1.1,0.1,1.6c0,18.3,0,36.6,0,54.9c0,0.9,0.2,1.1,1.1,1.1
                                c3.7-0.1,7.5,0,11.2,0c0.7,0,0.9-0.2,0.9-0.9c0-6.9,0-13.9,0-20.8c0-3.8,2.4-6.3,6.3-6.3c29.7,0,59.3,0,89,0c3.8,0,6.3,2.4,6.3,6.3
                                c0,24.8,0,49.6,0,74.4c0,3.8-2.4,6.2-6.3,6.2c-8.2,0-16.4,0-24.5,0c-0.8,0-0.9,0.2-0.9,1c0,8.5,0,17,0,25.6c0,1.9-0.4,3.7-1.8,5.1
                                c0.2,0.3,0.5,0.2,0.7,0.2c3,0,6,0,8.9,0c1.3,0,1.5,0.2,1.5,1.5c0,1,0,2.1,0,3.1c0,2.5-2,4.5-4.5,4.5c-0.2,0-0.4,0-0.5,0
                                c-48.3,0-96.7,0-145,0c-2.6,0-4.4-1.2-4.9-3.5c-0.4-1.6-0.2-3.3-0.1-4.9c0-0.7,0.7-0.7,1.3-0.7c3.2,0,6.4,0,9.7,0
                                c0-0.1,0.1-0.2,0-0.2c-1.4-1.5-1.8-3.3-1.7-5.3c0.1-4.5,0-8.9,0-13.4c0-0.6-0.1-0.8-0.8-0.8c-8.4,0-16.7,0-25.1,0
                                c-0.7,0-0.8,0.2-0.8,0.8c0.6,6.9,1.1,13.8,1.6,20.6c0,0.5,0.2,0.6,0.7,0.6c2.3,0,4.6,0,6.9,0c2.3,0,3.7,1.4,3.7,3.7
                                c0,0.7,0,1.4,0,2.1c0,0.6-0.4,0.9-1,1c-0.2,0-0.5,0-0.7,0c-17.1,0-34.1,0-51.2,0c-1.5,0-1.7-0.1-1.7-1.7c0-0.5,0-1.1,0-1.6
                                c0-2,1.4-3.4,3.5-3.5c2.3,0,4.7,0,7,0c0.7,0,0.8-0.2,0.9-0.9c0.5-6.8,1-13.5,1.6-20.3c0.1-0.7-0.1-1-0.9-1c-19.5,0-38.9,0-58.4,0
                                c-0.8,0-0.9,0.2-0.9,1c0,7.2,0,14.4,0,21.6c0,3.8-2.4,6.3-6.3,6.3c-8.4,0-16.7,0-25.1,0c-3.8,0-6.3-2.4-6.3-6.3
                                c0-11.7,0-23.4,0-35.1c0-0.3,0-0.7,0-1.2c-0.9,0.6-1.6,1.1-2.4,1.6c-17.6,11.2-41.1,0.3-43.9-20.4c-2.5-18.1,12.4-34,30.7-32.6
                                c11.9,0.9,22.1,9.1,25.5,20.7c0.2,0.8,0.6,1,1.4,1c1.8-0.1,3.6,0,5.4,0c0.7,0,0.8-0.2,0.8-0.8c0-1.8,0-3.7,0-5.5
                                c0-25.8,0-51.7,0-77.5c0-3.2,1.8-5.6,4.8-6.1c0.5-0.1,1.1-0.1,1.6-0.1c10.1,0,20.3,0,30.4,0c0.8,0,1-0.1,1-1c0-5.2,0-10.3,0-15.5
                                c0-3.2,1.3-5.1,4.4-6.2c0.1,0,0.1-0.1,0.2-0.2C155.5,0,181.1,0,206.6,0z M165.7,129.3c18.9,0,37.8,0,56.7,0c0.9,0,1.1-0.2,1.1-1.2
                                c0-12.1,0-24.3,0-36.4c0-1,0.1-1.9,0.5-2.8c1.1-2.5,3.1-3.7,5.8-3.7c11.1,0,22.1,0,33.2,0c0.9,0,1.1-0.2,1.1-1.1
                                c0-15.5,0-31.1,0-46.6c0-1.6-0.4-2-2-2c-16.6,0-33.2,0-49.7,0c-1,0-1.1,0.3-1.1,1.2c0,17.9,0,35.7,0,53.6c0,3.7-2.5,6.2-6.1,6.2
                                c-24.5,0-49,0-73.5,0c-0.8,0-1.6-0.1-2.4-0.4c-2.6-1.1-3.7-3.2-3.7-5.9c0-17.9,0-35.7,0-53.6c0-0.8-0.2-1.1-1.1-1.1
                                c-7.3,0-14.6,0-21.9,0c-1.5,0-2,0.4-2,1.9c0,24.8,0,49.5,0,74.3c0,0.8,0.2,1.1,1,1.1c3.8,0,6.3,2.5,6.3,6.3c0,3,0,6,0,9
                                c0,1,0.3,1.1,1.2,1.1C127.9,129.3,146.8,129.3,165.7,129.3z M168.3,12c-13.4,0-26.9,0-40.3,0c-0.9,0-1.2,0.2-1.2,1.1
                                c0,25.8,0,51.7,0,77.5c0,2.6,1.9,4.5,4.5,4.5c24.6,0,49.2,0,73.8,0c2.7,0,4.6-1.9,4.6-4.6c0-25.8,0-51.6,0-77.4
                                c0-0.9-0.2-1.2-1.1-1.2C195.2,12,181.8,12,168.3,12z M291.6,167.6c19.9,0,39.8,0,59.7,0c0.9,0,1.2-0.2,1.2-1.1c0-7,0-14,0-21
                                c0-1.4,0.2-1.3-1.3-1.3c-18.1,0-36.2,0-54.3,0c-1,0-2,0-2.9-0.4c-2.5-1.1-3.7-3.1-3.7-5.9c0-13.8,0-27.7,0-41.5
                                c0-0.9-0.2-1.1-1.1-1.1c-19.1,0-38.1,0-57.2,0c-1,0-1.1,0.3-1.1,1.2c0,23.3,0,46.7,0,70c0,1.2,0,1.2,1.2,1.2
                                C251.9,167.6,271.8,167.6,291.6,167.6z M341,69.3c-16.1,0-32.1,0-48.2,0c-0.9,0-1.2,0.2-1.2,1.1c0,22.6,0,45.1,0,67.7
                                c0,2.8,1.9,4.6,4.6,4.6c29.8,0,59.6,0,89.3,0c2.8,0,4.6-1.9,4.6-4.6c0-22.6,0-45.1,0-67.7c0-0.9-0.3-1.1-1.2-1.1
                                C373.1,69.4,357,69.3,341,69.3z M165.6,130.7c-18.9,0-37.8,0-56.7,0c-0.9,0-1.1,0.2-1.1,1.2c0,7.3,0,14.7,0,22c0,0.8,0.2,1.1,1,1.1
                                c37.9,0,75.7,0,113.6,0c0.8,0,1-0.2,1-1c0-7.3,0-14.7,0-22c0-1.2,0-1.2-1.2-1.2C203.4,130.7,184.5,130.7,165.6,130.7z M79.8,119.9
                                c0.1-15-12-27.1-26.8-27.4c-15.4-0.3-27.6,12.1-27.8,26.9c-0.2,15.3,12.1,27.6,26.9,27.8C67.4,147.4,79.9,134.9,79.8,119.9z
                                M291.7,176c20.7,0,41.5,0,62.2,0c2.7,0,4.6-1.8,4.6-4.6c0-5.8,0-11.7,0-17.5c0-3,0-6,0-8.9c0-0.6-0.2-0.8-0.8-0.8c-1,0-2,0.1-3,0
                                c-0.8,0-1,0.2-1,0.9c0,7.2,0,14.4,0,21.6c0,1.9-0.4,2.2-2.2,2.2c-39.9,0-79.9,0-119.8,0c-1.8,0-2.2-0.4-2.2-2.2
                                c0-23.6,0-47.1,0-70.7c0-1.7,0.5-2.2,2.1-2.2c5.9,0,11.8,0,17.7,0c13.3,0,26.6,0,39.9,0c0.8,0,1.1-0.1,1.1-1c-0.1-1.7,0-3.3,0-5
                                c0-1.2,0-1.2-1.2-1.2c-19.9,0-39.7,0-59.6,0c-2.8,0-4.6,1.8-4.6,4.7c0,26.6,0,53.3,0,79.9c0,2.9,1.8,4.7,4.7,4.7
                                C250.3,176,271,176,291.7,176z M106.5,147.6c0-8.2,0-16.4,0-24.5c0-0.7-0.1-1-0.9-0.9c-7.9,0-15.8,0-23.7,0c-0.6,0-0.8,0.2-0.9,0.8
                                c-0.8,6.9-3.7,12.8-8.6,17.6c-0.4,0.4-0.7,0.9-0.7,1.5c0,10,0,20.1,0,30.1c0,0.8,0.2,1.1,1.1,1.1c10.9,0,21.8,0,32.7,0
                                c0.8,0,1.1-0.2,1.1-1.1C106.5,163.9,106.5,155.8,106.5,147.6z M241.8,24.3c-9.9,0-19.8,0-29.7,0c-0.7,0-1,0.2-1,1
                                c0,2.6,0,5.2,0,7.8c0,1.4-0.2,1.2,1.2,1.2c16.4,0,32.8,0,49.2,0c0.4,0,0.8,0,1.2,0c1.1,0.1,1.9,0.7,2.3,1.7c0.3,0.6,0.3,1.3,0.3,2
                                c0,15.5,0,31,0,46.4c0,0.8,0.2,1,1,1c2.7-0.1,5.5-0.1,8.2,0c0.9,0,1.1-0.2,1.1-1.1c0-18.5,0-36.9,0-55.4c0-2.7-1.9-4.6-4.6-4.6
                                C261.3,24.3,251.5,24.3,241.8,24.3z M89.1,70.2c0,13.9,0,27.7,0,41.6c0,0.8,0.2,1,1,1c2.6-0.1,5.1,0,7.7,0c1.5,0,1.5,0,1.5-1.4
                                c0-24.5,0-49.1,0-73.6c0-2.5,1.1-3.6,3.6-3.6c7.2,0,14.5,0,21.7,0c0.8,0,1-0.2,1-1c0-2.6,0-5.3,0-7.9c0-0.8-0.2-1.1-1-1.1
                                c-10.2,0-20.4,0-30.7,0c-2.9,0-4.7,1.8-4.7,4.7C89.1,42.7,89.1,56.5,89.1,70.2z M291.7,183.7c18.5,0,36.9,0,55.4,0
                                c5.7,0,11.4,0,17.1,0c2.5,0,3.7-1.2,3.7-3.7c0-0.5-0.1-1,0-1.5c0.1-0.9-0.2-1.1-1.1-1.1c-21.1,0-42.3,0-63.4,0c-0.2,0-0.3,0-0.5,0
                                c-0.4,0-0.6,0.1-0.9,0.5c-1.3,2.2-3.2,3.2-5.8,3.2c-3.1,0-6.3,0-9.4,0c-2.3,0-4.2-1-5.5-2.9c-0.4-0.6-0.8-0.8-1.5-0.8
                                c-20.5,0-41.1,0-61.6,0c-0.9,0-2-0.4-2.5,0.2c-0.5,0.5-0.1,1.6-0.1,2.5c0,2.5,1.2,3.6,3.6,3.6C243.4,183.7,267.6,183.7,291.7,183.7
                                z M341,68c16,0,31.9,0,47.9,0c0.2,0,0.4,0,0.6,0c0.6,0.1,0.8-0.2,0.8-0.8c0-1.4,0-2.7,0-4.1c0-2.4-2-4.3-4.4-4.3
                                c-30,0-59.9,0-89.9,0c-2.4,0-4.4,1.9-4.4,4.3c0,1.2,0.1,2.5,0,3.7c-0.1,1,0.3,1.1,1.2,1.1C308.9,67.9,324.9,68,341,68z M168.3,10.6
                                c11.1,0,22.3,0,33.4,0c2.4,0,4.9,0,7.3,0c0.6,0,0.8-0.2,0.8-0.8c0-1.4,0-2.7,0-4.1c0-2.4-2-4.3-4.4-4.3c-24.7,0-49.5,0-74.2,0
                                c-2.4,0-4.4,1.9-4.4,4.3c0,1.2,0.1,2.5,0,3.7c-0.1,1,0.3,1.1,1.2,1.1C141.4,10.6,154.9,10.6,168.3,10.6z M182.4,178.4
                                c4.5,0,9,0,13.5,0c0.9,0,1.2-0.3,1-1.1c0-0.1,0-0.2,0-0.3c-0.5-6.6-1.1-13.3-1.5-19.9c-0.1-0.7-0.3-0.9-1-0.9c-6.6,0-13.3,0-19.9,0
                                c-1.4,0-2.9,0-4.3,0c-0.4,0-0.7,0.1-0.7,0.6c-0.5,6.9-1,13.8-1.6,20.6c-0.1,0.8,0.1,1,0.9,1C173.4,178.4,177.9,178.4,182.4,178.4z
                                M89.1,174.5c-5.4,0-10.9,0-16.3,0c-0.9,0-1.1,0.3-1,1.1c0.1,1.3,0,2.6,0,3.8c0,2.3,2,4.3,4.2,4.3c8.7,0,17.4,0,26.2,0
                                c2.3,0,4.3-2,4.3-4.3c0-1.3,0-2.6,0-3.8c0-0.8-0.2-1-1-1C100,174.5,94.5,174.5,89.1,174.5z M182.5,183.7c7.4,0,14.7,0,22.1,0
                                c1,0,2.1,0,3.1,0c0.2,0,0.5,0.1,0.7-0.3c0.7-2-0.4-3.6-2.5-3.6c-12.3,0-24.5,0-36.8,0c-3.4,0-6.9,0-10.3,0c-1.4,0-2.1,0.7-2.1,2.1
                                c0,0.2,0,0.5,0,0.7c-0.1,0.8,0.2,1.1,1,1C165.9,183.7,174.2,183.7,182.5,183.7z M93.8,120.7c3.6,0,7.2,0,10.9,0
                                c1.8,0,1.8,0,1.8-1.8c0-2.8-1.8-4.6-4.7-4.6c-6.5,0-13.1,0-19.6,0c-1.5,0-1.4,0-1.3,1.5c0.1,0.7,0.3,1,1.1,1c4.8,0,9.5,0,14.3,0
                                c0.3,0,0.6,0,0.8,0c0.4,0,0.6,0.3,0.7,0.6c0,0.4-0.3,0.6-0.7,0.7c-0.2,0-0.5,0-0.7,0c-4.5,0-8.9,0-13.4,0c-1.8,0-1.7,0-1.8,1.8
                                c0,0.8,0.3,0.9,0.9,0.9C86,120.7,89.9,120.7,93.8,120.7z M282.5,177.5c1.2,1.7,2.7,2.3,4.5,2.3c3,0,6.1,0,9.1,0
                                c1.5,0,2.8-0.4,3.9-1.5c0.2-0.2,0.5-0.4,0.4-0.6c-0.1-0.3-0.5-0.1-0.7-0.1c-4.1,0-8.2,0-12.3,0
                                C285.8,177.5,284.3,177.5,282.5,177.5z"/>
                            <path fill="#9450FE" d="M0,171.8c0.5-1.4,0.8-2.9,1.7-4.2c2.3-3.5,5.5-5.5,9.7-5.5c14.7,0,29.4,0,44.1,0c1.4,0,2,0.7,2.1,2.1
                                c0,0.2,0,0.4,0,0.5c0,2.4-0.5,3-2.9,3.2c-1,0.1-2,0.3-3,0.8c-2.1,0.9-3.1,2.6-3.1,4.9c0,2.4,1,4.1,3.1,5c1,0.4,2.1,0.7,3.3,0.8
                                c2,0.2,2.6,0.9,2.6,2.9c0,0.4,0,0.7,0,1.1c-0.1,1.1-0.7,1.8-1.8,1.8c-0.3,0-0.5,0-0.8,0c-14.2,0-28.4-0.1-42.6,0
                                c-6.6,0.1-11.3-4.5-12.1-9.5c0-0.1-0.1-0.1-0.2-0.2C0,174.2,0,173,0,171.8z M50.2,179.5c-0.9-0.8-1.7-1.4-2.2-2.2
                                c-0.3-0.6-0.7-0.8-1.4-0.8c-11.7,0-23.5,0-35.2,0c-0.6,0-1.5,0.2-1.5-0.7c0-0.9,0.9-0.7,1.5-0.7c11.5,0,22.9,0,34.4,0
                                c1.3,0,1.3,0,1.3-1.3c0-0.2,0-0.5,0-0.7c0.2-0.9-0.1-1.2-1.1-1.2c-11.5,0-23,0-34.5,0c-0.6,0-1.6,0.3-1.6-0.7c0-1,1-0.7,1.6-0.7
                                c11.7,0,23.4,0,35.1,0c0.3,0,0.8,0.2,1-0.1c0.6-1,1.4-1.8,2.5-2.6c-0.3-0.1-0.4-0.1-0.4-0.1c-12.9,0-25.9,0-38.8,0
                                c-1.7,0-3,0.8-4.1,2.1c-1.6,1.9-1.9,4.1-0.8,6.3c1.1,2.2,2.9,3.4,5.5,3.4c12.5,0,25,0,37.5,0C49.3,179.5,49.6,179.5,50.2,179.5z
                                M32.9,163.5c-7.1,0-14.3,0-21.4,0c-3.9,0-6.9,1.8-8.8,5.2c-3.7,6.8,1.2,14.9,8.9,14.9c14.4,0,28.9,0,43.3,0c0.2,0,0.4,0,0.6,0
                                c0.2,0,0.4,0,0.5-0.2c0.1-0.7,0.2-1.5,0-2.2c-0.2-0.6-0.9-0.4-1.4-0.4c-14.1,0-28.2,0-42.3,0c-0.4,0-0.7,0-1.1,0
                                c-5-0.2-8.3-5-6.7-9.6c1-3.1,3.8-4.9,7.3-4.9c14.3,0,28.5,0,42.8,0c1.5,0,1.5,0,1.5-1.5c0-1.3,0-1.3-1.5-1.3
                                C47.4,163.5,40.2,163.5,32.9,163.5z"/>
                            <path fill="#924DFE" d="M428.2,185.3c-4.1,0-8.2,0-12.3,0c-2.8,0-4.6-1.9-4.6-4.6c0-10,0-20,0-30c0-1.4,0.5-1.9,1.9-1.9
                                c3.6,0,7.2,0,10.9,0c0.5,0,0.8-0.1,1.1-0.6c1.7-2.9,5.7-2.9,7.5,0c0.3,0.5,0.6,0.6,1.2,0.6c3.2,0,6.4,0,9.7,0
                                c1.4,0,1.9,0.5,1.9,1.9c0,1.3,0,2.7,0,4c0,0.7,0.2,0.8,0.8,1c5.6,1.4,9.2,6.1,9.1,11.9c-0.1,5-3.8,9.6-8.8,10.8
                                c-0.8,0.2-1.2,0.5-1.1,1.4c0.1,0.7,0.1,1.4-0.1,2.1c-0.4,2.1-2.2,3.5-4.4,3.5C436.5,185.3,432.4,185.3,428.2,185.3z M412.7,165.9
                                c0,4.9,0,9.8,0,14.7c0,2.1,1.1,3.2,3.2,3.2c8.2,0,16.5,0,24.7,0c1.9,0,3.2-1.2,3.2-3.1c0-9.9,0-19.8,0-29.8c0-0.6-0.2-0.8-0.8-0.8
                                c-3.1,0-6.3,0-9.4,0c-0.6,0-0.8,0.1-0.8,0.8c0,1.7,0,3.5,0,5.2c0,0.8-0.4,1.8,0.2,2.4c0.5,0.5,1.5,0.1,2.3,0.1
                                c1.5,0.1,2.4,0.9,2.4,2.4c0,2.8,0,5.5,0,8.3c0,1.5-0.9,2.3-2.3,2.4c-2.1,0-4.1,0-6.2,0c-1.4,0-2.3-0.9-2.3-2.3c0-2.8,0-5.7,0-8.5
                                c0-1.4,0.9-2.2,2.3-2.3c0.5,0,1-0.1,1.5,0c0.8,0.1,0.9-0.2,0.9-0.9c0-2.2,0-4.4,0-6.7c0-0.7-0.2-0.9-0.9-0.9c-5.7,0-11.3,0-17,0
                                c-0.8,0-1,0.2-1,1C412.7,156.1,412.7,161,412.7,165.9z M436.3,165.3c0-1.4,0-2.9,0-4.3c0-0.6-0.3-1-0.9-1c-2.1,0-4.1,0-6.2,0
                                c-0.7,0-1,0.3-1,1c0,2.8,0,5.5,0,8.3c0,0.7,0.3,1,1,1c2,0,4.1,0,6.1,0c0.7,0,1-0.3,1-1.1C436.3,168,436.3,166.6,436.3,165.3z
                                M445.2,175.4c0,0.2,0,0.4,0,0.5c0,1.2,0,1.2,1.2,0.9c5.2-1.5,8.3-7,7-12.3c-1-3.9-3.5-6.4-7.4-7.5c-0.6-0.2-0.8,0-0.7,0.6
                                c0,0.6,0,1.2,0,1.8c0,0.6,0.2,0.8,0.7,1c2.8,1,4.6,3.7,4.6,6.6c0,2.9-1.8,5.5-4.6,6.5c-0.6,0.2-0.8,0.5-0.7,1.1
                                C445.2,175,445.2,175.2,445.2,175.4z M445.2,167c0,1.5,0,3.1,0,4.6c0,0.7,0.3,0.8,0.8,0.5c2-1.1,3.1-2.8,3.1-5.2
                                c0-2.3-1.2-3.9-3.1-5.1c-0.5-0.3-0.8-0.2-0.8,0.5C445.2,163.9,445.2,165.5,445.2,167z M426.5,148.7c1.6,0,3.1,0,4.6,0
                                C429.7,147.1,427.9,147.1,426.5,148.7z"/>
                            <path fill="#904BFE" d="M391.1,185.1c-3.6,0-7.2,0-10.8,0c-0.6,0-0.8-0.2-0.8-0.8c0-6,4.7-11.1,10.6-11.6
                                c6.2-0.5,11.6,3.7,12.6,9.8c0.1,0.6,0.1,1.2,0.2,1.8c0.1,0.7-0.2,0.8-0.8,0.8C398.4,185.1,394.8,185.1,391.1,185.1z M391.1,183.7
                                c3.2,0,6.4,0,9.6,0c0.6,0,0.8-0.2,0.7-0.8c-0.6-4.5-4.2-8.1-8.7-8.7c-0.4-0.1-0.8-0.1-0.8,0.5c0,0.3-0.3,0.6-0.7,0.6
                                c-0.4,0-0.6-0.3-0.7-0.6c0-0.7-0.5-0.5-0.9-0.5c-4.5,0.7-7.9,4.1-8.6,8.6c-0.1,0.7,0.1,0.9,0.8,0.9
                                C384.9,183.7,388,183.7,391.1,183.7z"/>
                            <path fill="#FEFEFE" d="M165.7,129.3c-18.9,0-37.8,0-56.7,0c-0.9,0-1.2-0.2-1.2-1.1c0.1-3,0-6,0-9c0-3.8-2.5-6.3-6.3-6.3
                                c-0.9,0-1-0.3-1-1.1c0-24.8,0-49.5,0-74.3c0-1.5,0.4-1.9,2-1.9c7.3,0,14.6,0,21.9,0c0.8,0,1.1,0.2,1.1,1.1c0,17.9,0,35.7,0,53.6
                                c0,2.8,1.1,4.8,3.7,5.9c0.8,0.3,1.6,0.4,2.4,0.4c24.5,0,49,0,73.5,0c3.7,0,6.1-2.5,6.1-6.2c0-17.9,0-35.7,0-53.6
                                c0-0.9,0.2-1.2,1.1-1.2c16.6,0,33.2,0,49.7,0c1.6,0,2,0.4,2,2c0,15.5,0,31.1,0,46.6c0,0.9-0.2,1.1-1.1,1.1c-11.1,0-22.1,0-33.2,0
                                c-2.7,0-4.7,1.2-5.8,3.7c-0.4,0.9-0.5,1.8-0.5,2.8c0,12.1,0,24.3,0,36.4c0,0.9-0.2,1.2-1.1,1.2
                                C203.5,129.3,184.6,129.3,165.7,129.3z"/>
                            <path fill="#FEFEFE" d="M168.3,12c13.4,0,26.9,0,40.3,0c0.9,0,1.1,0.2,1.1,1.2c0,25.8,0,51.6,0,77.4c0,2.7-1.9,4.6-4.6,4.6
                                c-24.6,0-49.2,0-73.8,0c-2.6,0-4.5-1.9-4.5-4.5c0-25.8,0-51.7,0-77.5c0-1,0.3-1.1,1.2-1.1C141.4,12,154.9,12,168.3,12z M153.7,71.9
                                c3.5,0,6.9,0,10.4,0c0.2,0,0.5,0,0.7,0c0.4-0.1,0.6-0.3,0.7-0.6c0-0.4-0.3-0.7-0.7-0.7c-0.2,0-0.4,0-0.6,0c-7,0-14,0-21,0
                                c-0.3,0-0.5,0-0.8,0.1c-0.3,0.1-0.5,0.3-0.5,0.6c0,0.3,0.2,0.6,0.5,0.7c0.3,0.1,0.6,0.1,0.9,0.1C146.8,71.9,150.3,71.9,153.7,71.9z
                                M173.7,57.3c3.5,0,7,0,10.5,0c0.3,0,0.6,0,0.8,0c0.4-0.1,0.6-0.3,0.6-0.7c0-0.3-0.3-0.6-0.6-0.6c-0.2,0-0.5,0-0.7,0
                                c-7,0-14,0-21,0c-0.3,0-0.6,0-0.9,0.1c-0.3,0.1-0.4,0.3-0.4,0.6c0,0.3,0.2,0.5,0.4,0.5c0.3,0.1,0.6,0.1,0.9,0.1
                                C166.8,57.3,170.2,57.3,173.7,57.3z M167.3,35.4c3.2,0,6.4,0,9.6,0c0.3,0,0.6,0,0.8,0c0.4-0.1,0.6-0.3,0.6-0.7
                                c0-0.3-0.3-0.6-0.6-0.6c-0.2,0-0.5,0-0.7,0c-6.4,0-12.8,0-19.1,0c-0.3,0-0.6,0-0.9,0.1c-0.3,0.1-0.4,0.3-0.4,0.6
                                c0,0.3,0.2,0.5,0.4,0.5c0.3,0.1,0.6,0.1,0.9,0.1C161,35.4,164.1,35.4,167.3,35.4z M151,48.6c-2.6,0-5.2,0-7.7,0c-0.2,0-0.5,0-0.7,0
                                c-0.4,0.1-0.6,0.3-0.6,0.7c0,0.3,0.2,0.6,0.6,0.6c0.2,0.1,0.5,0,0.7,0c5.2,0,10.3,0,15.5,0c0.2,0,0.4,0,0.6,0
                                c0.4-0.1,0.7-0.3,0.7-0.7c0-0.4-0.3-0.6-0.7-0.6c-0.2,0-0.5,0-0.7,0C156.1,48.6,153.5,48.6,151,48.6z M151,57.3c2.6,0,5.2,0,7.8,0
                                c0.5,0,1.2,0,1.2-0.7c0-0.7-0.6-0.7-1.1-0.7c-5.3,0-10.5,0-15.8,0c-0.5,0-1.2,0-1.2,0.7c0,0.8,0.7,0.7,1.2,0.7
                                C145.8,57.3,148.4,57.3,151,57.3z M178.3,26.7c-2.1,0-4.2,0-6.4,0c-0.5,0-1.1,0-1.1,0.7c0,0.6,0.6,0.7,1.1,0.7c4.2,0,8.4,0,12.6,0
                                c0.5,0,1.1,0,1.1-0.7c0-0.6-0.6-0.7-1.1-0.7C182.4,26.7,180.3,26.7,178.3,26.7z M168.3,50c1.7,0,3.5,0,5.2,0c0.5,0,1.1,0,1.1-0.7
                                c0-0.7-0.6-0.7-1.1-0.7c-3.5,0-6.9,0-10.4,0c-0.5,0-1.1,0-1.1,0.7c0,0.7,0.6,0.7,1.1,0.7C164.9,50,166.6,50,168.3,50z M148.2,35.4
                                c1.7,0,3.5,0,5.2,0c0.5,0,1.1,0,1.1-0.7c0-0.7-0.6-0.7-1.1-0.7c-3.5,0-6.9,0-10.4,0c-0.5,0-1.1,0-1.1,0.7c0,0.7,0.6,0.7,1.1,0.7
                                C144.8,35.4,146.5,35.4,148.2,35.4z M162.9,63.2c-1.8,0-3.5,0-5.3,0c-0.5,0-1.1,0-1.1,0.7c0,0.6,0.6,0.7,1.1,0.7
                                c3.5,0,6.9,0,10.4,0c0.5,0,1.1,0,1.1-0.7c0-0.6-0.6-0.7-1.1-0.7C166.3,63.2,164.6,63.2,162.9,63.2z M148.1,64.6c1.8,0,3.5,0,5.3,0
                                c0.5,0,1.1,0,1.1-0.7c0-0.6-0.6-0.7-1.1-0.7c-3.5,0-6.9,0-10.4,0c-0.5,0-1.1,0-1.1,0.7c0,0.6,0.6,0.7,1.1,0.7
                                C144.7,64.6,146.4,64.6,148.1,64.6z M147.3,79.2c1.5,0,2.9,0,4.4,0c0.5,0,1-0.1,1-0.7c0-0.6-0.5-0.7-1-0.7c-2.9,0-5.8,0-8.7,0
                                c-0.5,0-1,0.1-1,0.7c0,0.6,0.5,0.7,1,0.7C144.4,79.2,145.9,79.2,147.3,79.2z M163.6,26.7c-1.4,0-2.8,0-4.2,0c-0.5,0-1.1,0.1-1,0.7
                                c0,0.6,0.5,0.7,1,0.7c2.8,0,5.6,0,8.4,0c0.5,0,1.1-0.1,1-0.7c0-0.6-0.5-0.7-1-0.7C166.4,26.7,165,26.7,163.6,26.7z M146.5,41.3
                                c-1.2,0-2.4,0-3.5,0c-0.5,0-1,0.1-1,0.7c0,0.6,0.5,0.7,1,0.7c2.3,0,4.6,0,6.9,0c0.5,0,1-0.1,1-0.7c0-0.6-0.5-0.7-1-0.7
                                C148.7,41.3,147.6,41.3,146.5,41.3z M157.3,42.7c1.2,0,2.3,0,3.5,0c0.5,0,1.1-0.1,1-0.7c0-0.6-0.5-0.7-1-0.7c-2.3,0-4.7,0-7,0
                                c-0.5,0-1,0.1-1,0.7c0,0.6,0.5,0.7,1,0.7C155,42.7,156.2,42.7,157.3,42.7z M184.8,34c-1.2,0-2.3,0-3.5,0c-0.5,0-1.1,0.1-1,0.7
                                c0,0.6,0.5,0.7,1,0.7c2.3,0,4.7,0,7,0c0.5,0,1-0.1,1-0.7c0-0.6-0.5-0.7-1-0.7C187.1,34,185.9,34,184.8,34z M174.7,64.6
                                c0.8,0,1.7,0,2.5,0c0.5,0,1-0.1,1-0.7c0-0.6-0.5-0.7-1-0.7c-1.8,0-3.5,0-5.3,0c-0.5,0-0.9,0.2-0.9,0.7c0,0.6,0.5,0.7,1,0.7
                                C173,64.6,173.8,64.6,174.7,64.6z M145,26.7c-0.8,0-1.5,0-2.3,0c-0.4,0-0.8,0.2-0.8,0.6c0,0.5,0.4,0.7,0.8,0.7c1.5,0,3,0,4.5,0
                                c0.4,0,0.8-0.2,0.8-0.6c0-0.5-0.4-0.7-0.8-0.7C146.6,26.7,145.8,26.7,145,26.7z M153.3,26.7c-0.8,0-1.5,0-2.3,0
                                c-0.5,0-0.9,0.2-0.8,0.7c0,0.5,0.4,0.6,0.8,0.7c1.5,0,3,0,4.5,0c0.5,0,0.9-0.2,0.8-0.7c0-0.5-0.4-0.6-0.8-0.7
                                C154.8,26.7,154,26.7,153.3,26.7z M166.4,42.7c0.7,0,1.3,0,2,0c0.4,0,0.7-0.2,0.7-0.6c0-0.5-0.3-0.7-0.8-0.7c-1.3,0-2.5,0-3.8,0
                                c-0.4,0-0.7,0.2-0.7,0.6c0,0.5,0.3,0.7,0.8,0.7C165.2,42.7,165.8,42.7,166.4,42.7z M138,35.4c0.6-0.1,1.5,0.2,1.5-0.7
                                c0-1-0.9-0.7-1.5-0.7c-0.6,0-1.5-0.2-1.5,0.7C136.5,35.7,137.4,35.3,138,35.4z M138,63.2C138,63.2,138,63.2,138,63.2
                                c-0.2,0-0.4,0-0.6,0c-0.5,0-0.9,0.2-0.9,0.7c0,0.5,0.4,0.7,0.9,0.7c0.5,0,1.1,0,1.6,0c0.4,0,0.6-0.3,0.6-0.7c0-0.4-0.3-0.6-0.6-0.7
                                C138.6,63.2,138.3,63.2,138,63.2z M138.2,48.6c-0.3,0-0.6,0-0.8,0c-0.5,0-0.9,0.2-0.9,0.7c0,0.5,0.4,0.7,0.9,0.7c0.2,0,0.5,0,0.7,0
                                c0.6,0,1.5,0.2,1.5-0.7C139.6,48.4,138.7,48.7,138.2,48.6z M138.2,41.3c-0.4,0-0.7,0-0.9,0c-0.4,0-0.8,0.2-0.8,0.7
                                c0,0.5,0.4,0.7,0.8,0.7c0.3,0,0.5,0,0.8,0c0.6,0,1.5,0.2,1.5-0.7C139.5,41.1,138.6,41.4,138.2,41.3z M137.9,28.1c0.3,0,0.6,0,0.8,0
                                c0.5,0,0.9-0.2,0.9-0.7c0-0.5-0.4-0.7-0.8-0.7c-0.2,0-0.5,0-0.7,0c-0.6,0.1-1.6-0.3-1.6,0.7C136.5,28.3,137.4,28,137.9,28.1z
                                M138,79.2c0.6-0.1,1.5,0.2,1.5-0.7c0-1-0.9-0.7-1.6-0.7c-0.6,0-1.5-0.2-1.5,0.7C136.5,79.5,137.4,79.1,138,79.2z M138,71.9
                                c0.2,0,0.4,0,0.6,0c0.5,0,0.9-0.2,0.9-0.7c0-0.5-0.4-0.7-0.9-0.7c-0.5,0-0.9,0-1.4,0c-0.5,0-0.9,0.2-0.9,0.7c0,0.5,0.4,0.7,0.9,0.7
                                C137.5,71.9,137.8,71.9,138,71.9z M138,57.3c0.6-0.1,1.5,0.2,1.5-0.7c0-1-0.9-0.7-1.5-0.7c-0.6,0-1.5-0.2-1.5,0.7
                                C136.4,57.6,137.4,57.2,138,57.3z"/>
                            <path fill="#FEFEFE" d="M291.6,167.6c-19.8,0-39.7,0-59.5,0c-1.2,0-1.2,0-1.2-1.2c0-23.3,0-46.7,0-70c0-0.9,0.2-1.2,1.1-1.2
                                c19.1,0,38.1,0,57.2,0c0.9,0,1.1,0.3,1.1,1.1c0,13.8,0,27.7,0,41.5c0,2.7,1.2,4.7,3.7,5.9c0.9,0.4,1.9,0.4,2.9,0.4
                                c18.1,0,36.2,0,54.3,0c1.5,0,1.3-0.1,1.3,1.3c0,7,0,14,0,21c0,1-0.3,1.1-1.2,1.1C331.4,167.6,311.5,167.6,291.6,167.6z"/>
                            <path fill="#FEFEFE" d="M341,69.3c16.1,0,32.1,0,48.2,0c0.9,0,1.2,0.2,1.2,1.1c0,22.6,0,45.1,0,67.7c0,2.8-1.9,4.6-4.6,4.6
                                c-29.8,0-59.6,0-89.3,0c-2.8,0-4.6-1.9-4.6-4.6c0-22.6,0-45.1,0-67.7c0-0.9,0.2-1.1,1.2-1.1C308.9,69.4,324.9,69.3,341,69.3z
                                M370.4,97.6c-0.3-0.1-0.4-0.3-0.5-0.5c-2.8-5.6-7.3-9-13.3-10.4c-0.6-0.1-0.8-0.4-0.7-0.9c0-0.2,0-0.5,0-0.7
                                c0.1-0.7-0.2-0.9-0.9-0.9c-1.2,0-2.5,0.1-3.7,0c-0.9,0-1.3,0.2-1.1,1.1c0.2,1-0.2,1.2-1.2,1.5c-7.8,1.8-12.7,6.7-14.7,14.4
                                c-0.4,1.4-0.3,1.4-1.7,1.5c-0.5,0-0.9,0-0.9,0.6c0,1.5,0,3,0,4.5c0,0.5,0.2,0.7,0.7,0.7c0.3,0,0.6,0,0.8,0c0.7-0.1,0.9,0.2,1.1,0.9
                                c1.9,7.7,6.6,12.5,14.2,14.6c1.4,0.4,1.5,0.4,1.5,1.8c0,0.7,0.3,0.8,0.9,0.8c1.2,0,2.4,0,3.6,0c1.3,0,1.4,0,1.3-1.3
                                c0-0.7,0.2-1,0.9-1.2c4.7-1,8.6-3.4,11.5-7.3c0.8-1.1,1.4-2.3,2.2-3.5c0.1,2.4,0.1,4.7,0.1,7.1c0,0.5-0.1,0.8-0.5,1.1
                                c-1.1,0.8-1.2,2.2-0.3,3.1c0.9,1,2.2,1,3.1,0c0.9-1,0.8-2.3-0.4-3.1c-0.4-0.3-0.5-0.7-0.5-1.1c0-3.6,0-7.2,0-10.8
                                c0-0.8,0.2-1.2,1.1-1c0.8,0.1,1-0.2,1-1c0-1.2,0-2.4,0-3.6c0-1.2,0-1.2-1.2-1.2c-0.6,0-0.8-0.1-0.8-0.8c0-3.6,0-7.2,0-10.8
                                c0-0.4,0.1-0.7,0.5-1c0.7-0.5,1.1-1.2,0.9-2.1c-0.2-1-1-1.7-2-1.8c-0.8-0.1-1.8,0.5-2.1,1.4c-0.4,0.9-0.1,1.8,0.7,2.4
                                c0.2,0.2,0.6,0.3,0.6,0.7C370.4,93,370.4,95.3,370.4,97.6z M320.9,121.8c0-1.3,0-2.6,0-3.9c0-1.6-0.9-2.4-2.4-2.5
                                c-2.6,0-5.2,0-7.8,0c-1.5,0-2.4,0.9-2.4,2.4c0,2.6,0,5.2,0,7.7c0,1.6,0.9,2.5,2.5,2.5c2.6,0,5.2,0,7.7,0c1.6,0,2.5-0.9,2.5-2.5
                                C320.9,124.3,320.9,123.1,320.9,121.8z M308.2,88.9c0,0.6,0,1.3,0,1.9c0,0.7,0,1.3,0,2c0,1.5,0.9,2.4,2.5,2.4c2.6,0,5.2,0,7.8,0
                                c1.5,0,2.4-0.9,2.4-2.4c0-2.6,0-5.3,0-7.9c0-1.5-0.9-2.4-2.4-2.4c-2.6,0-5.2,0-7.8,0c-1.6,0-2.4,0.9-2.5,2.4
                                C308.1,86.3,308.2,87.6,308.2,88.9z M320.9,105.4c0-1.3,0-2.6,0-3.9c0-1.6-0.9-2.5-2.5-2.5c-2.6,0-5.2,0-7.7,0
                                c-1.6,0-2.5,0.9-2.5,2.5c0,2.6,0,5.2,0,7.7c0,1.6,0.9,2.4,2.4,2.5c2.6,0,5.2,0,7.8,0c1.5,0,2.4-0.9,2.4-2.4
                                C320.9,108,320.9,106.7,320.9,105.4z"/>
                            <path fill="#FEFEFE" d="M165.6,130.7c18.9,0,37.8,0,56.7,0c1.2,0,1.2,0,1.2,1.2c0,7.3,0,14.7,0,22c0,0.8-0.2,1-1,1
                                c-37.9,0-75.7,0-113.6,0c-0.8,0-1.1-0.2-1-1.1c0-7.3,0-14.7,0-22c0-0.9,0.2-1.2,1.1-1.2C127.9,130.7,146.8,130.7,165.6,130.7z
                                M182.5,139.7c-2.1,0-4,1.8-4.1,4c0,2.2,1.9,4.1,4,4.1c2.1,0,4-1.8,4.1-4C186.6,141.7,184.6,139.7,182.5,139.7z"/>
                            <path fill="#FEFEFE" d="M79.8,119.9c0.1,15-12.4,27.5-27.7,27.3c-14.8-0.2-27.2-12.5-26.9-27.8c0.2-14.8,12.5-27.1,27.8-26.9
                                C67.8,92.8,79.9,104.9,79.8,119.9z M48.1,130.8c0,0.4,0.1,0.8,0.5,0.9c0.7,0.2,0.9-0.3,1.1-0.8c2.4-7.1,4.7-14.2,7.1-21.2
                                c0.2-0.5,0.3-1.1-0.4-1.3c-0.7-0.2-0.9,0.3-1.1,0.8c0,0.1-0.1,0.2-0.1,0.3c-2.2,6.7-4.5,13.4-6.7,20.1
                                C48.3,129.9,48.2,130.4,48.1,130.8z M45.1,112.1c-0.3,0-0.6,0.2-0.8,0.4c-2.5,2.2-4.9,4.4-7.3,6.6c-0.8,0.7-0.8,1,0.1,1.7
                                c1.7,1.5,3.4,3.1,5.2,4.6c0.7,0.6,1.5,1.3,2.2,1.9c0.4,0.4,0.8,0.6,1.3,0.1c0.4-0.5,0.1-0.9-0.3-1.3c-0.3-0.2-0.5-0.4-0.8-0.7
                                c-1.9-1.7-3.8-3.4-5.7-5.1c-0.5-0.4-0.5-0.6,0-1.1c1.6-1.4,3.1-2.7,4.6-4.1c0.7-0.6,1.3-1.2,2-1.8c0.3-0.3,0.4-0.6,0.3-1
                                C45.6,112.3,45.4,112.1,45.1,112.1z M59.9,127.7c0.4,0,0.6-0.2,0.9-0.5c2.4-2.2,4.9-4.3,7.3-6.5c0.8-0.7,0.8-1,0-1.7
                                c-2.4-2.2-4.8-4.3-7.3-6.5c-0.4-0.3-0.9-0.7-1.3-0.2c-0.5,0.6-0.1,1,0.4,1.4c2.1,1.9,4.2,3.8,6.3,5.6c0.5,0.5,0.4,0.7,0,1.1
                                c-1.9,1.7-3.8,3.4-5.7,5.1c-0.3,0.3-0.7,0.6-1,0.9c-0.2,0.2-0.2,0.5-0.1,0.8C59.3,127.5,59.6,127.7,59.9,127.7z"/>
                            <path fill="#FDFDFE" d="M291.7,176c-20.7,0-41.4,0-62.1,0c-2.9,0-4.7-1.8-4.7-4.7c0-26.6,0-53.3,0-79.9c0-2.9,1.8-4.7,4.6-4.7
                                c19.9,0,39.7,0,59.6,0c1.2,0,1.2,0,1.2,1.2c0,1.7-0.1,3.3,0,5c0,0.9-0.3,1-1.1,1c-13.3,0-26.6,0-39.9,0c-5.9,0-11.8,0-17.7,0
                                c-1.7,0-2.1,0.5-2.1,2.2c0,23.6,0,47.1,0,70.7c0,1.8,0.4,2.2,2.2,2.2c39.9,0,79.9,0,119.8,0c1.9,0,2.2-0.4,2.2-2.2
                                c0-7.2,0-14.4,0-21.6c0-0.8,0.2-1,1-0.9c1,0.1,2,0.1,3,0c0.6,0,0.8,0.2,0.8,0.8c0,3,0,6,0,8.9c0,5.8,0,11.7,0,17.5
                                c0,2.7-1.8,4.6-4.6,4.6C333.2,176,312.5,176,291.7,176z"/>
                            <path fill="#FEFEFE" d="M106.5,147.6c0,8.2,0,16.4,0,24.5c0,0.8-0.2,1.1-1.1,1.1c-10.9,0-21.8,0-32.7,0c-0.8,0-1.1-0.2-1.1-1.1
                                c0-10,0-20.1,0-30.1c0-0.6,0.2-1.1,0.7-1.5c5-4.8,7.9-10.7,8.6-17.6c0.1-0.6,0.2-0.8,0.9-0.8c7.9,0,15.8,0,23.7,0
                                c0.8,0,0.9,0.3,0.9,0.9C106.5,131.2,106.5,139.4,106.5,147.6z M84.7,147.5c0-1.8-1.6-3.4-3.4-3.4c-1.8,0-3.5,1.6-3.4,3.4
                                c0,1.8,1.6,3.4,3.4,3.4C83,150.9,84.7,149.3,84.7,147.5z M94.1,142.8c-1.8,0-3.5,0-5.3,0c-0.5,0-1.1,0.1-1.1,0.7
                                c0,0.6,0.6,0.7,1.1,0.7c3.5,0,7,0,10.5,0c0.5,0,1.1-0.1,1.1-0.7c0-0.6-0.6-0.7-1.1-0.7C97.5,142.8,95.8,142.8,94.1,142.8z
                                M92.2,146.8c-1.2,0-2.3,0-3.5,0c-0.5,0-1.1,0.1-1,0.7c0,0.6,0.5,0.7,1,0.7c2.3,0,4.6,0,6.9,0c0.5,0,1.1-0.1,1-0.7
                                c0-0.6-0.5-0.7-1-0.7C94.5,146.8,93.4,146.8,92.2,146.8z M90.3,150.8c-0.6,0-1.2,0-1.8,0c-0.4,0-0.8,0.2-0.8,0.7
                                c0,0.5,0.3,0.7,0.8,0.7c1.2,0,2.5,0,3.7,0c0.4,0,0.8-0.2,0.8-0.7c0-0.5-0.4-0.7-0.9-0.7C91.6,150.8,90.9,150.8,90.3,150.8z"/>
                            <path fill="#FEFEFE" d="M241.8,24.3c9.8,0,19.5,0,29.3,0c2.7,0,4.6,1.9,4.6,4.6c0,18.5,0,36.9,0,55.4c0,0.9-0.2,1.1-1.1,1.1
                                c-2.7-0.1-5.5-0.1-8.2,0c-0.8,0-1-0.2-1-1c0-15.5,0-31,0-46.4c0-0.7,0-1.3-0.3-2c-0.5-1-1.3-1.5-2.3-1.7c-0.4,0-0.8,0-1.2,0
                                c-16.4,0-32.8,0-49.2,0c-1.4,0-1.2,0.1-1.2-1.2c0-2.6,0-5.2,0-7.8c0-0.8,0.2-1,1-1C222,24.3,231.9,24.3,241.8,24.3z"/>
                            <path fill="#FEFEFE" d="M89.1,70.2c0-13.7,0-27.5,0-41.2c0-2.9,1.8-4.7,4.7-4.7c10.2,0,20.4,0,30.7,0c0.9,0,1.1,0.3,1,1.1
                                c0,2.6,0,5.3,0,7.9c0,0.8-0.2,1-1,1c-7.2,0-14.5,0-21.7,0c-2.5,0-3.6,1.1-3.6,3.6c0,24.5,0,49.1,0,73.6c0,1.4,0,1.4-1.5,1.4
                                c-2.6,0-5.1,0-7.7,0c-0.8,0-1-0.2-1-1C89.1,98,89.1,84.1,89.1,70.2z"/>
                            <path fill="#FEFEFE" d="M291.7,183.7c-24.2,0-48.4,0-72.5,0c-2.5,0-3.7-1.2-3.6-3.6c0-0.8-0.4-1.9,0.1-2.5c0.6-0.6,1.7-0.2,2.5-0.2
                                c20.5,0,41.1,0,61.6,0c0.7,0,1.1,0.2,1.5,0.8c1.3,2,3.1,2.9,5.5,2.9c3.1,0,6.3,0,9.4,0c2.5,0,4.5-1,5.8-3.2
                                c0.2-0.4,0.4-0.5,0.9-0.5c0.2,0,0.3,0,0.5,0c21.1,0,42.3,0,63.4,0c0.9,0,1.3,0.2,1.1,1.1c-0.1,0.5,0,1,0,1.5c0,2.5-1.1,3.7-3.7,3.7
                                c-5.7,0-11.4,0-17.1,0C328.7,183.7,310.2,183.7,291.7,183.7z"/>
                            <path fill="#FEFEFE" d="M341,68c-16.1,0-32.1,0-48.2,0c-0.9,0-1.2-0.2-1.2-1.1c0.1-1.2,0-2.5,0-3.7c0-2.4,2-4.3,4.4-4.3
                                c30,0,59.9,0,89.9,0c2.4,0,4.4,1.9,4.4,4.3c0,1.4,0,2.7,0,4.1c0,0.6-0.2,0.8-0.8,0.8c-0.2,0-0.4,0-0.6,0C372.9,68,357,68,341,68z
                                M298.8,61.8c-0.8,0-1.6,0.8-1.6,1.6c0,0.8,0.7,1.6,1.6,1.6c0.8,0,1.6-0.8,1.6-1.6C300.4,62.5,299.6,61.8,298.8,61.8z M304.3,64.9
                                c0.8,0,1.6-0.7,1.6-1.6c0-0.8-0.7-1.6-1.5-1.6c-0.8,0-1.7,0.8-1.6,1.6C302.7,64.2,303.5,64.9,304.3,64.9z M311.4,63.4
                                c0-0.8-0.7-1.6-1.6-1.6c-0.8,0-1.6,0.7-1.6,1.5c0,0.8,0.8,1.7,1.6,1.6C310.6,64.9,311.3,64.2,311.4,63.4z"/>
                            <path fill="#FEFEFE" d="M168.3,10.6c-13.4,0-26.9,0-40.3,0c-0.9,0-1.2-0.2-1.2-1.1c0.1-1.2,0-2.5,0-3.7c0-2.4,2-4.3,4.4-4.3
                                c24.7,0,49.5,0,74.2,0c2.4,0,4.4,1.9,4.4,4.3c0,1.4,0,2.7,0,4.1c0,0.6-0.2,0.8-0.8,0.8c-2.4,0-4.9,0-7.3,0
                                C190.6,10.6,179.4,10.6,168.3,10.6z M145,4.5c-0.8,0-1.6,0.7-1.7,1.5c-0.1,0.8,0.7,1.6,1.5,1.7c0.8,0.1,1.7-0.7,1.7-1.5
                                C146.6,5.3,145.8,4.5,145,4.5z M139.5,4.5c-0.8,0-1.6,0.8-1.6,1.6c0,0.8,0.7,1.6,1.6,1.6c0.8,0,1.6-0.8,1.6-1.6
                                C141,5.2,140.3,4.4,139.5,4.5z M134,4.5c-0.8,0-1.6,0.8-1.6,1.6c0,0.8,0.7,1.6,1.6,1.6c0.8,0,1.6-0.8,1.6-1.6
                                C135.6,5.2,134.8,4.4,134,4.5z"/>
                            <path fill="#FEFEFE" d="M182.4,178.4c-4.5,0-9.1,0-13.6,0c-0.8,0-1-0.2-0.9-1c0.6-6.9,1.1-13.8,1.6-20.6c0-0.5,0.3-0.6,0.7-0.6
                                c1.4,0,2.9,0,4.3,0c6.6,0,13.3,0,19.9,0c0.7,0,0.9,0.1,1,0.9c0.5,6.6,1,13.3,1.5,19.9c0,0.1,0,0.2,0,0.3c0.2,0.8-0.1,1.1-1,1.1
                                C191.4,178.4,186.9,178.4,182.4,178.4z"/>
                            <path fill="#FEFEFE" d="M89.1,174.5c5.5,0,10.9,0,16.4,0c0.8,0,1,0.2,1,1c-0.1,1.3,0,2.6,0,3.8c0,2.3-2,4.3-4.3,4.3
                                c-8.7,0-17.4,0-26.2,0c-2.3,0-4.2-2-4.2-4.3c0-1.3,0-2.6,0-3.8c0-0.8,0.1-1.1,1-1.1C78.2,174.5,83.6,174.5,89.1,174.5z M91.2,179
                                c0-1.1-1-2.1-2-2.1c-1,0-2,1-2.1,2c0,1,1,2,2,2C90.2,181,91.2,180.1,91.2,179z"/>
                            <path fill="#FEFEFE" d="M182.5,183.7c-8.3,0-16.5,0-24.8,0c-0.8,0-1.2-0.2-1-1c0-0.2,0-0.5,0-0.7c0-1.4,0.7-2.1,2.1-2.1
                                c3.4,0,6.9,0,10.3,0c12.3,0,24.5,0,36.8,0c2.1,0,3.2,1.6,2.5,3.6c-0.1,0.4-0.4,0.3-0.7,0.3c-1,0-2.1,0-3.1,0
                                C197.2,183.7,189.8,183.7,182.5,183.7z"/>
                            <path fill="#FEFEFE" d="M93.8,120.7c-3.9,0-7.8,0-11.7,0c-0.7,0-1-0.1-0.9-0.9c0-1.8,0-1.8,1.8-1.8c4.5,0,8.9,0,13.4,0
                                c0.2,0,0.5,0,0.7,0c0.4-0.1,0.7-0.3,0.7-0.7c0-0.4-0.3-0.6-0.7-0.6c-0.3,0-0.5,0-0.8,0c-4.8,0-9.5,0-14.3,0c-0.8,0-1-0.3-1.1-1
                                c-0.1-1.5-0.2-1.5,1.3-1.5c6.5,0,13.1,0,19.6,0c2.9,0,4.7,1.8,4.7,4.6c0,1.8,0,1.8-1.8,1.8C101,120.7,97.4,120.7,93.8,120.7z"/>
                            <path fill="#FDFDFE" d="M282.5,177.5c1.7,0,3.3,0,4.8,0c4.1,0,8.2,0,12.3,0c0.3,0,0.6-0.1,0.7,0.1c0.1,0.3-0.2,0.5-0.4,0.6
                                c-1,1.1-2.4,1.5-3.9,1.5c-3,0-6.1,0-9.1,0C285.2,179.7,283.7,179.2,282.5,177.5z"/>
                            <path fill="#FEFEFE" d="M50.2,179.5c-0.6,0-0.9,0-1.2,0c-12.5,0-25,0-37.5,0c-2.5,0-4.4-1.1-5.5-3.4c-1.1-2.2-0.8-4.4,0.8-6.3
                                c1.1-1.3,2.4-2.1,4.1-2.1c12.9,0,25.9,0,38.8,0c0.1,0,0.1,0,0.4,0.1c-1.1,0.7-1.8,1.6-2.5,2.6c-0.2,0.3-0.6,0.1-1,0.1
                                c-11.7,0-23.4,0-35.1,0c-0.6,0-1.6-0.3-1.6,0.7c0,1,1,0.7,1.6,0.7c11.5,0,23,0,34.5,0c0.9,0,1.3,0.2,1.1,1.2c-0.1,0.2,0,0.5,0,0.7
                                c0,1.3,0,1.3-1.3,1.3c-11.5,0-22.9,0-34.4,0c-0.6,0-1.4-0.2-1.5,0.7c0,0.9,0.9,0.7,1.5,0.7c11.7,0,23.5,0,35.2,0
                                c0.7,0,1.1,0.1,1.4,0.8C48.5,178.1,49.3,178.7,50.2,179.5z"/>
                            <path fill="#FDFDFE" d="M32.9,163.5c7.2,0,14.5,0,21.7,0c1.5,0,1.5,0,1.5,1.3c0,1.5,0,1.5-1.5,1.5c-14.3,0-28.5,0-42.8,0
                                c-3.5,0-6.3,1.9-7.3,4.9c-1.6,4.6,1.7,9.3,6.7,9.6c0.4,0,0.7,0,1.1,0c14.1,0,28.2,0,42.3,0c0.5,0,1.2-0.2,1.4,0.4
                                c0.2,0.7,0.2,1.4,0,2.2c0,0.2-0.3,0.2-0.5,0.2c-0.2,0-0.4,0-0.6,0c-14.4,0-28.9,0-43.3,0c-7.7,0-12.6-8.1-8.9-14.9
                                c1.9-3.4,4.9-5.2,8.8-5.2C18.6,163.5,25.8,163.5,32.9,163.5z"/>
                            <path fill="#FEFEFE" d="M412.7,165.9c0-4.9,0-9.9,0-14.8c0-0.8,0.2-1,1-1c5.7,0,11.3,0,17,0c0.7,0,0.9,0.2,0.9,0.9
                                c0,2.2,0,4.4,0,6.7c0,0.7-0.1,1-0.9,0.9c-0.5-0.1-1,0-1.5,0c-1.4,0.1-2.2,0.9-2.3,2.3c0,2.8,0,5.7,0,8.5c0,1.4,0.9,2.3,2.3,2.3
                                c2.1,0,4.1,0,6.2,0c1.4,0,2.3-0.9,2.3-2.4c0-2.8,0-5.5,0-8.3c0-1.5-0.9-2.3-2.4-2.4c-0.8,0-1.8,0.3-2.3-0.1
                                c-0.5-0.5-0.2-1.6-0.2-2.4c0-1.7,0-3.5,0-5.2c0-0.6,0.2-0.8,0.8-0.8c3.1,0,6.3,0,9.4,0c0.6,0,0.8,0.2,0.8,0.8c0,9.9,0,19.8,0,29.8
                                c0,1.9-1.2,3.1-3.2,3.1c-8.2,0-16.5,0-24.7,0c-2.1,0-3.2-1.2-3.2-3.2C412.7,175.7,412.7,170.8,412.7,165.9z"/>
                            <path fill="#FEFEFE" d="M436.3,165.3c0,1.3,0,2.7,0,4c0,0.7-0.3,1.1-1,1.1c-2,0-4.1,0-6.1,0c-0.7,0-1-0.3-1-1c0-2.8,0-5.5,0-8.3
                                c0-0.7,0.3-1,1-1c2.1,0,4.1,0,6.2,0c0.6,0,0.9,0.3,0.9,1C436.3,162.4,436.3,163.9,436.3,165.3z"/>
                            <path fill="#FDFDFE" d="M445.2,175.4c0-0.2,0-0.5,0-0.7c-0.1-0.6,0.1-0.9,0.7-1.1c2.7-1,4.6-3.7,4.6-6.5c0-2.9-1.8-5.6-4.6-6.6
                                c-0.5-0.2-0.7-0.4-0.7-1c0-0.6,0-1.2,0-1.8c0-0.6,0.1-0.8,0.7-0.6c3.9,1.1,6.4,3.6,7.4,7.5c1.4,5.3-1.8,10.8-7,12.3
                                c-1.2,0.3-1.2,0.3-1.2-0.9C445.2,175.8,445.2,175.6,445.2,175.4z"/>
                            <path fill="#FDFDFE" d="M445.2,167c0-1.5,0-3.1,0-4.6c0-0.7,0.3-0.8,0.8-0.5c2,1.1,3.1,2.8,3.1,5.1c0,2.4-1.1,4-3.1,5.2
                                c-0.5,0.3-0.8,0.3-0.8-0.5C445.2,170.1,445.2,168.6,445.2,167z"/>
                            <path fill="#FDFDFE" d="M426.5,148.7c1.4-1.6,3.2-1.6,4.6,0C429.5,148.7,428,148.7,426.5,148.7z"/>
                            <path fill="#FDFDFE" d="M391.1,183.7c-3.1,0-6.2,0-9.3,0c-0.7,0-0.9-0.2-0.8-0.9c0.7-4.5,4.1-7.9,8.6-8.6c0.4-0.1,0.9-0.2,0.9,0.5
                                c0,0.3,0.3,0.6,0.7,0.6c0.4,0,0.6-0.3,0.7-0.6c0-0.6,0.4-0.5,0.8-0.5c4.5,0.6,8.1,4.2,8.7,8.7c0.1,0.6-0.1,0.8-0.7,0.8
                                C397.5,183.7,394.3,183.7,391.1,183.7z"/>
                            <path fill="#9755FE" d="M153.7,71.9c-3.5,0-6.9,0-10.4,0c-0.3,0-0.6,0-0.9-0.1c-0.3-0.1-0.5-0.3-0.5-0.7c0-0.3,0.2-0.5,0.5-0.6
                                c0.3-0.1,0.5-0.1,0.8-0.1c7,0,14,0,21,0c0.2,0,0.4,0,0.6,0c0.4,0.1,0.7,0.3,0.7,0.7c0,0.4-0.3,0.6-0.7,0.6c-0.2,0-0.5,0-0.7,0
                                C160.6,71.9,157.2,71.9,153.7,71.9z"/>
                            <path fill="#9755FE" d="M173.7,57.3c-3.5,0-6.9,0-10.4,0c-0.3,0-0.6,0-0.9-0.1c-0.3-0.1-0.4-0.3-0.4-0.5c0-0.3,0.1-0.6,0.4-0.6
                                c0.3-0.1,0.6-0.1,0.9-0.1c7,0,14,0,21,0c0.2,0,0.5,0,0.7,0c0.3,0.1,0.6,0.3,0.6,0.6c0,0.4-0.2,0.6-0.6,0.7c-0.3,0.1-0.5,0-0.8,0
                                C180.7,57.3,177.2,57.3,173.7,57.3z"/>
                            <path fill="#9755FE" d="M167.3,35.4c-3.2,0-6.3,0-9.5,0c-0.3,0-0.6,0-0.9-0.1c-0.3-0.1-0.4-0.3-0.4-0.5c0-0.3,0.1-0.6,0.4-0.6
                                c0.3-0.1,0.6-0.1,0.9-0.1c6.4,0,12.8,0,19.1,0c0.2,0,0.5,0,0.7,0c0.3,0.1,0.6,0.3,0.6,0.6c0,0.4-0.2,0.6-0.6,0.7
                                c-0.3,0.1-0.5,0-0.8,0C173.7,35.4,170.5,35.4,167.3,35.4z"/>
                            <path fill="#9755FE" d="M151,48.6c2.6,0,5.1,0,7.7,0c0.2,0,0.5,0,0.7,0c0.4,0.1,0.6,0.3,0.7,0.6c0,0.4-0.3,0.6-0.7,0.7
                                c-0.2,0-0.4,0-0.6,0c-5.2,0-10.3,0-15.5,0c-0.2,0-0.5,0-0.7,0c-0.3-0.1-0.6-0.3-0.6-0.6c0-0.4,0.2-0.6,0.6-0.7c0.2,0,0.5,0,0.7,0
                                C145.8,48.6,148.4,48.6,151,48.6z"/>
                            <path fill="#9755FE" d="M151,57.3c-2.6,0-5.2,0-7.8,0c-0.6,0-1.2,0-1.2-0.7c0-0.7,0.6-0.7,1.2-0.7c5.3,0,10.5,0,15.8,0
                                c0.5,0,1.2,0,1.1,0.7c0,0.7-0.6,0.7-1.2,0.7C156.2,57.3,153.6,57.3,151,57.3z"/>
                            <path fill="#9755FE" d="M178.3,26.7c2.1,0,4.1,0,6.2,0c0.5,0,1.1,0,1.1,0.7c0,0.7-0.6,0.7-1.1,0.7c-4.2,0-8.4,0-12.6,0
                                c-0.5,0-1.1,0-1.1-0.7c0-0.7,0.6-0.7,1.1-0.7C174,26.7,176.1,26.7,178.3,26.7z"/>
                            <path fill="#9755FE" d="M168.3,50c-1.7,0-3.5,0-5.2,0c-0.5,0-1.1,0-1.1-0.7c0-0.6,0.6-0.7,1.1-0.7c3.5,0,6.9,0,10.4,0
                                c0.5,0,1.1,0,1.1,0.7c0,0.6-0.6,0.7-1.1,0.7C171.8,50,170,50,168.3,50z"/>
                            <path fill="#9755FE" d="M148.2,35.4c-1.7,0-3.5,0-5.2,0c-0.5,0-1.1,0-1.1-0.7c0-0.6,0.6-0.7,1.1-0.7c3.5,0,6.9,0,10.4,0
                                c0.5,0,1.1,0,1.1,0.7c0,0.6-0.6,0.7-1.1,0.7C151.7,35.4,150,35.4,148.2,35.4z"/>
                            <path fill="#9755FE" d="M162.9,63.2c1.7,0,3.4,0,5.1,0c0.5,0,1.1,0,1.1,0.7c0,0.7-0.6,0.7-1.1,0.7c-3.5,0-6.9,0-10.4,0
                                c-0.5,0-1.1,0-1.1-0.7c0-0.7,0.6-0.7,1.1-0.7C159.4,63.2,161.2,63.2,162.9,63.2z"/>
                            <path fill="#9755FE" d="M148.1,64.6c-1.7,0-3.4,0-5.1,0c-0.5,0-1.1,0-1.1-0.7c0-0.7,0.6-0.7,1.1-0.7c3.5,0,6.9,0,10.4,0
                                c0.5,0,1.1,0,1.1,0.7c0,0.7-0.6,0.7-1.1,0.7C151.7,64.6,149.9,64.6,148.1,64.6z"/>
                            <path fill="#9755FE" d="M147.3,79.2c-1.5,0-2.9,0-4.4,0c-0.5,0-1.1-0.1-1-0.7c0-0.6,0.5-0.7,1-0.7c2.9,0,5.8,0,8.7,0
                                c0.5,0,1.1,0.1,1,0.7c0,0.6-0.5,0.7-1,0.7C150.2,79.2,148.8,79.2,147.3,79.2z"/>
                            <path fill="#9755FE" d="M163.6,26.7c1.4,0,2.8,0,4.2,0c0.5,0,1,0.1,1,0.7c0,0.6-0.5,0.7-1,0.7c-2.8,0-5.6,0-8.4,0
                                c-0.5,0-1-0.1-1-0.7c0-0.6,0.5-0.7,1-0.7C160.8,26.7,162.2,26.7,163.6,26.7z"/>
                            <path fill="#9755FE" d="M146.5,41.3c1.1,0,2.2,0,3.4,0c0.5,0,1.1,0.1,1,0.7c0,0.6-0.5,0.7-1,0.7c-2.3,0-4.6,0-6.9,0
                                c-0.5,0-1.1-0.1-1-0.7c0-0.6,0.5-0.7,1-0.7C144.1,41.3,145.3,41.3,146.5,41.3z"/>
                            <path fill="#9755FE" d="M157.3,42.7c-1.2,0-2.3,0-3.5,0c-0.5,0-1-0.1-1-0.7c0-0.6,0.5-0.7,1-0.7c2.3,0,4.7,0,7,0c0.5,0,1,0.1,1,0.7
                                c0,0.6-0.5,0.7-1,0.7C159.6,42.7,158.5,42.7,157.3,42.7z"/>
                            <path fill="#9755FE" d="M184.8,34c1.2,0,2.3,0,3.5,0c0.5,0,1,0.1,1,0.7c0,0.6-0.5,0.7-1,0.7c-2.3,0-4.7,0-7,0c-0.5,0-1-0.1-1-0.7
                                c0-0.6,0.5-0.7,1-0.7C182.5,34,183.6,34,184.8,34z"/>
                            <path fill="#9755FE" d="M174.7,64.6c-0.9,0-1.8,0-2.6,0c-0.5,0-1-0.1-1-0.7c0-0.5,0.4-0.7,0.9-0.7c1.8,0,3.5,0,5.3,0
                                c0.5,0,1,0.1,1,0.7c0,0.6-0.5,0.7-1,0.7C176.4,64.6,175.6,64.6,174.7,64.6z"/>
                            <path fill="#9755FE" d="M145,26.7c0.8,0,1.5,0,2.3,0c0.5,0,0.9,0.2,0.8,0.7c0,0.5-0.4,0.6-0.8,0.6c-1.5,0-3,0-4.5,0
                                c-0.5,0-0.9-0.2-0.8-0.7c0-0.5,0.4-0.6,0.8-0.6C143.5,26.7,144.3,26.7,145,26.7z"/>
                            <path fill="#9755FE" d="M153.3,26.7c0.8,0,1.5,0,2.3,0c0.4,0,0.8,0.2,0.8,0.7c0,0.5-0.4,0.7-0.8,0.7c-1.5,0-3,0-4.5,0
                                c-0.4,0-0.8-0.2-0.8-0.7c0-0.5,0.4-0.7,0.8-0.7C151.7,26.7,152.5,26.7,153.3,26.7z"/>
                            <path fill="#9B5CFE" d="M166.4,42.7c-0.6,0-1.2,0-1.8,0c-0.4,0-0.8-0.3-0.8-0.7c0-0.4,0.3-0.6,0.7-0.6c1.3,0,2.5,0,3.8,0
                                c0.4,0,0.8,0.3,0.8,0.7c0,0.4-0.3,0.6-0.7,0.6C167.7,42.7,167.1,42.7,166.4,42.7z"/>
                            <path fill="#9B5CFE" d="M138,35.4c-0.6-0.1-1.6,0.2-1.5-0.7c0-0.9,0.9-0.7,1.5-0.7c0.6,0,1.6-0.3,1.5,0.7
                                C139.5,35.6,138.6,35.3,138,35.4z"/>
                            <path fill="#9B5CFE" d="M138,63.2c0.3,0,0.7,0,1,0c0.4,0.1,0.6,0.3,0.6,0.7c0,0.4-0.3,0.6-0.6,0.7c-0.5,0-1.1,0-1.6,0
                                c-0.5,0-0.9-0.2-0.9-0.7c0-0.5,0.4-0.7,0.9-0.7C137.5,63.2,137.8,63.2,138,63.2C138,63.2,138,63.2,138,63.2z"/>
                            <path fill="#9B5CFE" d="M138.2,48.6c0.5,0.1,1.4-0.2,1.4,0.7c0,0.9-0.9,0.6-1.5,0.7c-0.2,0-0.5,0-0.7,0c-0.5,0-0.9-0.2-0.9-0.7
                                c0-0.5,0.4-0.7,0.9-0.7C137.6,48.6,137.8,48.6,138.2,48.6z"/>
                            <path fill="#9B5CFE" d="M138.2,41.3c0.5,0.1,1.4-0.2,1.4,0.7c0,0.9-0.9,0.7-1.5,0.7c-0.3,0-0.5,0-0.8,0c-0.4,0-0.8-0.2-0.8-0.7
                                c0-0.5,0.3-0.7,0.8-0.7C137.5,41.3,137.8,41.3,138.2,41.3z"/>
                            <path fill="#9B5CFE" d="M137.9,28.1c-0.5-0.1-1.4,0.2-1.4-0.7c0-1,0.9-0.7,1.6-0.7c0.2,0,0.5,0,0.7,0c0.4,0,0.8,0.2,0.8,0.7
                                c0,0.5-0.4,0.7-0.9,0.7C138.5,28.1,138.2,28.1,137.9,28.1z"/>
                            <path fill="#9B5CFE" d="M138,79.2c-0.6-0.1-1.6,0.3-1.5-0.7c0-0.9,0.9-0.7,1.5-0.7c0.6,0,1.6-0.3,1.6,0.7
                                C139.5,79.4,138.6,79.1,138,79.2z"/>
                            <path fill="#9B5CFE" d="M138,71.9c-0.2,0-0.5,0-0.7,0c-0.5,0-0.9-0.2-0.9-0.7c0-0.5,0.4-0.7,0.9-0.7c0.5,0,0.9,0,1.4,0
                                c0.5,0,0.9,0.2,0.9,0.7c0,0.5-0.4,0.7-0.9,0.7C138.5,71.9,138.2,71.9,138,71.9z"/>
                            <path fill="#9B5CFE" d="M138,57.3c-0.6-0.1-1.6,0.2-1.5-0.8c0-0.9,0.9-0.7,1.5-0.7c0.6,0,1.6-0.3,1.5,0.7
                                C139.5,57.5,138.6,57.2,138,57.3z"/>
                            <path fill="#9450FE" d="M370.4,97.6c0-2.3,0-4.6,0-6.8c0-0.4-0.4-0.5-0.6-0.7c-0.8-0.7-1-1.5-0.7-2.4c0.3-0.8,1.2-1.4,2.1-1.4
                                c0.9,0.1,1.8,0.8,2,1.8c0.2,0.9-0.2,1.6-0.9,2.1c-0.4,0.3-0.5,0.5-0.5,1c0,3.6,0,7.2,0,10.8c0,0.7,0.2,0.8,0.8,0.8
                                c1.2,0,1.2,0,1.2,1.2c0,1.2,0,2.4,0,3.6c0,0.8-0.2,1.1-1,1c-0.8-0.1-1.1,0.2-1.1,1c0,3.6,0,7.2,0,10.8c0,0.5,0.1,0.8,0.5,1.1
                                c1.1,0.8,1.2,2.1,0.4,3.1c-0.9,1-2.2,1-3.1,0c-0.9-0.9-0.8-2.3,0.3-3.1c0.4-0.3,0.5-0.6,0.5-1.1c0-2.4,0-4.7-0.1-7.1
                                c-0.8,1.2-1.4,2.4-2.2,3.5c-2.9,3.9-6.8,6.3-11.5,7.3c-0.8,0.2-1,0.5-0.9,1.2c0.1,1.3,0,1.3-1.3,1.3c-1.2,0-2.4,0-3.6,0
                                c-0.6,0-0.9-0.2-0.9-0.8c0-1.5-0.1-1.4-1.5-1.8c-7.6-2.1-12.4-6.9-14.2-14.6c-0.2-0.6-0.4-1-1.1-0.9c-0.3,0-0.5,0-0.8,0
                                c-0.5,0-0.7-0.2-0.7-0.7c0-1.5,0-3,0-4.5c0-0.6,0.4-0.6,0.9-0.6c1.4,0,1.4-0.1,1.7-1.5c2-7.7,6.9-12.6,14.7-14.4
                                c0.9-0.2,1.3-0.5,1.2-1.5c-0.2-0.9,0.3-1.2,1.1-1.1c1.2,0.1,2.5,0,3.7,0c0.7,0,1,0.2,0.9,0.9c0,0.2,0,0.5,0,0.7
                                c-0.1,0.6,0.2,0.8,0.7,0.9c6.1,1.4,10.5,4.8,13.3,10.4C370,97.3,370.1,97.5,370.4,97.6z M368,105.6c0-0.6,0-1.2,0-1.7
                                c0-1.2,0-1.3,1.2-1.2c0.8,0,0.9-0.3,0.8-1c-1.8-7-6.1-11.4-13-13.4c-0.8-0.2-1.2-0.2-1,0.8c0.1,0.7-0.2,0.9-0.9,0.9
                                c-1.3,0-2.6-0.1-3.9,0c-0.8,0-1.1-0.3-1-1c0.1-0.8-0.2-0.9-0.9-0.8c-7.2,1.8-11.6,6.3-13.5,13.5c-0.2,0.7,0,1.1,0.8,0.9
                                c0.7-0.1,1,0.2,1,1c-0.1,1.3-0.1,2.6,0,3.8c0,0.8-0.2,1.1-1,1c-0.8-0.1-0.9,0.2-0.7,0.9c1.9,6.9,6.3,11.3,13.2,13.1
                                c0.7,0.2,1,0.1,0.9-0.7c-0.1-0.8,0.2-1,1-1c1.3,0.1,2.6,0.1,3.8,0c0.8,0,1.1,0.3,1,1c-0.1,0.8,0.2,0.9,0.9,0.7
                                c6.8-1.8,11.2-6,13.1-12.8c0.3-1.1,0.6-1.2-0.9-1.2c-0.7,0-0.9-0.2-0.9-0.9C368.1,106.9,368,106.2,368,105.6z M352.8,125.1
                                c1.7,0,1.5,0.2,1.5-1.2c0-1.8,0-1.8-1.2-1.8c-1.8,0-1.8,0-1.8,1.2C351.3,125.1,351.3,125.1,352.8,125.1z M370.9,107
                                c1.7,0,1.5,0.2,1.5-1.2c0-1.8,0-1.8-1.2-1.8c-1.8,0-1.8,0-1.8,1.3C369.4,107,369.4,107,370.9,107z M333.1,105.5
                                c0,1.7-0.2,1.5,1.2,1.5c1.8,0,1.8,0,1.8-1.2c0-1.7,0-1.7-1.3-1.7C333.1,104,333.1,104,333.1,105.5z M354.5,87.1
                                c0-1.7,0.2-1.5-1.2-1.5c-1.8,0-1.8,0-1.8,1.2c0,1.8,0,1.8,1.3,1.8C354.5,88.6,354.5,88.6,354.5,87.1z"/>
                            <path fill="#9654FE" d="M320.9,121.8c0,1.3,0,2.6,0,3.8c0,1.6-0.9,2.5-2.5,2.5c-2.6,0-5.2,0-7.7,0c-1.6,0-2.5-0.9-2.5-2.5
                                c0-2.6,0-5.2,0-7.7c0-1.6,0.9-2.4,2.4-2.4c2.6,0,5.2,0,7.8,0c1.5,0,2.4,0.9,2.4,2.5C320.9,119.2,320.9,120.5,320.9,121.8z
                                M309.6,121.7c0,1.4,0,2.7,0,4.1c0,0.6,0.3,1,0.9,1c2.7,0,5.3,0,8,0c0.7,0,1-0.3,1-1c0-2.6,0-5.3,0-7.9c0-0.7-0.3-1-1-1
                                c-2.6,0-5.3,0-7.9,0c-0.7,0-1,0.3-1,1C309.6,119.1,309.6,120.4,309.6,121.7z"/>
                            <path fill="#9654FE" d="M308.2,88.9c0-1.3,0-2.6,0-3.9c0-1.5,0.9-2.4,2.5-2.4c2.6,0,5.2,0,7.8,0c1.5,0,2.4,0.9,2.4,2.4
                                c0,2.6,0,5.3,0,7.9c0,1.5-0.9,2.4-2.4,2.4c-2.6,0-5.2,0-7.8,0c-1.6,0-2.4-0.9-2.5-2.4c0-0.7,0-1.3,0-2
                                C308.2,90.2,308.2,89.6,308.2,88.9z M309.6,88.8c0,1.3,0,2.7,0,4c0,0.7,0.3,1,1,1c2.6,0,5.2,0,7.8,0c0.7,0,1.1-0.3,1.1-1
                                c0-2.6,0-5.3,0-7.9c0-0.7-0.3-1-1-1c-2.6,0-5.3,0-7.9,0c-0.8,0-1,0.3-1,1.1C309.6,86.3,309.6,87.6,309.6,88.8z"/>
                            <path fill="#9654FE" d="M320.9,105.4c0,1.3,0,2.6,0,3.8c0,1.6-0.9,2.4-2.4,2.4c-2.6,0-5.2,0-7.8,0c-1.5,0-2.4-0.9-2.4-2.5
                                c0-2.6,0-5.2,0-7.7c0-1.6,0.9-2.5,2.5-2.5c2.6,0,5.2,0,7.7,0c1.6,0,2.5,0.9,2.5,2.5C320.9,102.8,320.9,104.1,320.9,105.4z
                                M314.5,110.3c1.3,0,2.7,0,4,0c0.6,0,1-0.3,1-0.9c0-2.7,0-5.3,0-8c0-0.7-0.3-1-1-1c-2.6,0-5.3,0-7.9,0c-0.7,0-1,0.3-1,1
                                c0,2.6,0,5.3,0,7.9c0,0.7,0.3,1,1,1C311.9,110.3,313.2,110.3,314.5,110.3z"/>
                            <path fill="#934FFE" d="M182.5,139.7c2.2,0,4.1,2,4,4.1c0,2.2-1.9,4-4.1,4c-2.2,0-4.1-2-4-4.1C178.4,141.5,180.3,139.7,182.5,139.7
                                z M185.1,143.8c0-1.5-1.1-2.7-2.6-2.7c-1.5,0-2.7,1.1-2.7,2.6c0,1.6,1.1,2.7,2.7,2.7C184,146.4,185.1,145.3,185.1,143.8z"/>
                            <path fill="#924DFE" d="M48.1,130.8c0.1-0.4,0.3-0.9,0.4-1.3c2.2-6.7,4.5-13.4,6.7-20.1c0-0.1,0.1-0.2,0.1-0.3
                                c0.2-0.5,0.4-1,1.1-0.8c0.7,0.2,0.5,0.8,0.4,1.3c-2.4,7.1-4.7,14.2-7.1,21.2c-0.2,0.5-0.4,1-1.1,0.8
                                C48.2,131.5,48,131.2,48.1,130.8z"/>
                            <path fill="#924DFE" d="M45.1,112.1c0.3,0,0.5,0.2,0.7,0.4c0.2,0.4,0,0.7-0.3,1c-0.7,0.6-1.3,1.2-2,1.8c-1.5,1.4-3.1,2.8-4.6,4.1
                                c-0.5,0.4-0.5,0.7,0,1.1c1.9,1.7,3.8,3.4,5.7,5.1c0.2,0.2,0.5,0.4,0.8,0.7c0.4,0.3,0.7,0.8,0.3,1.3c-0.4,0.5-0.9,0.3-1.3-0.1
                                c-0.7-0.6-1.5-1.3-2.2-1.9c-1.7-1.5-3.5-3.1-5.2-4.6c-0.8-0.8-0.9-1-0.1-1.7c2.4-2.2,4.9-4.4,7.3-6.6
                                C44.5,112.3,44.8,112.1,45.1,112.1z"/>
                            <path fill="#924DFE" d="M59.9,127.7c-0.3-0.1-0.5-0.2-0.6-0.5c-0.1-0.3-0.1-0.6,0.1-0.8c0.3-0.3,0.7-0.6,1-0.9
                                c1.9-1.7,3.8-3.4,5.7-5.1c0.5-0.4,0.5-0.7,0-1.1c-2.1-1.9-4.2-3.8-6.3-5.6c-0.4-0.4-0.9-0.8-0.4-1.4c0.5-0.6,0.9-0.2,1.3,0.2
                                c2.4,2.2,4.9,4.3,7.3,6.5c0.8,0.8,0.8,1,0,1.7c-2.4,2.2-4.9,4.3-7.3,6.5C60.5,127.5,60.2,127.7,59.9,127.7z"/>
                            <path fill="#9450FE" d="M84.7,147.5c0,1.8-1.6,3.5-3.4,3.4c-1.8,0-3.4-1.6-3.4-3.4c0-1.8,1.6-3.5,3.4-3.4
                                C83.1,144.1,84.6,145.7,84.7,147.5z M81.3,149.5c1.1,0,2-0.9,2-2c0-1.2-0.9-2.1-2.1-2c-1.1,0-2,0.9-2,2
                                C79.2,148.7,80.1,149.6,81.3,149.5z"/>
                            <path fill="#9755FE" d="M94.1,142.8c1.7,0,3.5,0,5.2,0c0.5,0,1.1,0.1,1.1,0.7c0,0.6-0.5,0.7-1.1,0.7c-3.5,0-7,0-10.5,0
                                c-0.5,0-1.1-0.1-1.1-0.7c0-0.6,0.5-0.7,1.1-0.7C90.5,142.8,92.3,142.8,94.1,142.8z"/>
                            <path fill="#9755FE" d="M92.2,146.8c1.2,0,2.3,0,3.5,0c0.5,0,1,0.1,1,0.7c0,0.6-0.5,0.7-1,0.7c-2.3,0-4.6,0-6.9,0
                                c-0.5,0-1-0.1-1-0.7c0-0.6,0.5-0.7,1-0.7C89.9,146.8,91.1,146.8,92.2,146.8z"/>
                            <path fill="#9B5CFE" d="M90.3,150.8c0.6,0,1.2,0,1.8,0c0.5,0,0.9,0.2,0.9,0.7c0,0.5-0.4,0.7-0.8,0.7c-1.2,0-2.5,0-3.7,0
                                c-0.4,0-0.8-0.2-0.8-0.7c0-0.5,0.4-0.7,0.8-0.7C89.1,150.8,89.7,150.8,90.3,150.8z"/>
                            <path fill="#924DFE" d="M298.8,61.8c0.8,0,1.6,0.7,1.6,1.6c0,0.8-0.8,1.6-1.6,1.6c-0.8,0-1.6-0.8-1.6-1.6
                                C297.2,62.5,298,61.8,298.8,61.8z"/>
                            <path fill="#924DFE" d="M304.3,64.9c-0.8,0-1.6-0.8-1.6-1.6c0-0.8,0.8-1.6,1.6-1.6c0.8,0,1.6,0.8,1.5,1.6
                                C305.9,64.2,305.1,65,304.3,64.9z"/>
                            <path fill="#924DFE" d="M311.4,63.4c0,0.8-0.8,1.6-1.6,1.6c-0.8,0-1.6-0.8-1.6-1.6c0-0.8,0.8-1.6,1.6-1.5
                                C310.6,61.8,311.4,62.6,311.4,63.4z"/>
                            <path fill="#924DFE" d="M145,4.5c0.8,0,1.5,0.8,1.5,1.6c0,0.8-0.9,1.6-1.7,1.5c-0.8-0.1-1.5-0.9-1.5-1.7
                                C143.4,5.1,144.2,4.4,145,4.5z"/>
                            <path fill="#924DFE" d="M139.5,4.5c0.8,0,1.6,0.7,1.6,1.6c0,0.8-0.8,1.6-1.6,1.6c-0.8,0-1.6-0.8-1.6-1.6
                                C137.9,5.2,138.7,4.5,139.5,4.5z"/>
                            <path fill="#924DFE" d="M134,4.5c0.8,0,1.6,0.7,1.6,1.6c0,0.8-0.8,1.6-1.6,1.6c-0.8,0-1.6-0.8-1.6-1.6C132.4,5.2,133.2,4.5,134,4.5
                                z"/>
                            <path fill="#904BFE" d="M91.2,179c0,1.1-1,2-2,2c-1.1,0-2.1-1-2-2c0-1,1-2,2.1-2C90.2,176.9,91.2,177.9,91.2,179z"/>
                            <path fill="#FEFEFE" d="M368,105.6c0,0.6,0,1.3,0,1.9c0,0.7,0.2,0.9,0.9,0.9c1.5-0.1,1.2,0.1,0.9,1.2c-1.9,6.8-6.3,11-13.1,12.8
                                c-0.7,0.2-1,0.1-0.9-0.7c0.1-0.7-0.2-1-1-1c-1.3,0.1-2.6,0.1-3.8,0c-0.8,0-1.1,0.2-1,1c0.1,0.8-0.2,0.9-0.9,0.7
                                c-6.9-1.8-11.3-6.2-13.2-13.1c-0.2-0.7-0.1-1,0.7-0.9c0.8,0.1,1-0.2,1-1c-0.1-1.3-0.1-2.6,0-3.8c0-0.8-0.3-1.1-1-1
                                c-0.8,0.1-0.9-0.2-0.8-0.9c1.8-7.2,6.3-11.7,13.5-13.5c0.7-0.2,1.1,0,0.9,0.8c-0.1,0.7,0.2,1,1,1c1.3-0.1,2.6,0,3.9,0
                                c0.7,0,1-0.2,0.9-0.9c-0.1-0.9,0.3-1,1-0.8c6.9,1.9,11.3,6.4,13,13.4c0.2,0.7,0.1,1-0.8,1c-1.2,0-1.2,0-1.2,1.2
                                C368,104.4,368,105,368,105.6z"/>
                            <path fill="#FEFEFE" d="M352.8,125.1c-1.5,0-1.5,0-1.5-1.8c0-1.2,0-1.2,1.8-1.2c1.2,0,1.2,0,1.2,1.8
                                C354.3,125.3,354.5,125.1,352.8,125.1z"/>
                            <path fill="#FEFEFE" d="M370.9,107c-1.5,0-1.5,0-1.5-1.7c0-1.3,0-1.3,1.8-1.3c1.2,0,1.2,0,1.2,1.8C372.4,107.2,372.6,107,370.9,107
                                z"/>
                            <path fill="#FEFEFE" d="M333.1,105.5c0-1.5,0-1.5,1.7-1.5c1.3,0,1.3,0,1.3,1.7c0,1.2,0,1.3-1.8,1.2
                                C332.9,107,333.1,107.2,333.1,105.5z"/>
                            <path fill="#FEFEFE" d="M354.5,87.1c0,1.5,0,1.5-1.7,1.5c-1.3,0-1.3,0-1.3-1.8c0-1.2,0-1.2,1.8-1.2
                                C354.7,85.6,354.5,85.4,354.5,87.1z"/>
                            <path fill="#FEFEFE" d="M309.6,121.7c0-1.3,0-2.6,0-3.8c0-0.7,0.3-1.1,1-1c2.6,0,5.3,0,7.9,0c0.7,0,1,0.3,1,1c0,2.6,0,5.3,0,7.9
                                c0,0.7-0.3,1-1,1c-2.7,0-5.3,0-8,0c-0.6,0-0.9-0.3-0.9-1C309.6,124.4,309.6,123,309.6,121.7z"/>
                            <path fill="#FEFEFE" d="M309.6,88.8c0-1.3,0-2.6,0-3.8c0-0.7,0.3-1.1,1-1.1c2.6,0,5.3,0,7.9,0c0.7,0,1,0.3,1,1c0,2.6,0,5.3,0,7.9
                                c0,0.7-0.3,1-1.1,1c-2.6,0-5.2,0-7.8,0c-0.7,0-1.1-0.3-1-1C309.6,91.5,309.6,90.2,309.6,88.8z"/>
                            <path fill="#FEFEFE" d="M314.5,110.3c-1.3,0-2.6,0-3.9,0c-0.7,0-1.1-0.3-1-1c0-2.6,0-5.3,0-7.9c0-0.7,0.3-1,1-1c2.6,0,5.3,0,7.9,0
                                c0.7,0,1,0.3,1,1c0,2.7,0,5.3,0,8c0,0.6-0.3,0.9-1,0.9C317.2,110.3,315.9,110.3,314.5,110.3z"/>
                            <path fill="#FDFDFE" d="M185.1,143.8c0,1.5-1.1,2.7-2.6,2.7c-1.5,0-2.7-1.2-2.7-2.7c0-1.5,1.2-2.6,2.7-2.6
                                C184,141.1,185.1,142.3,185.1,143.8z"/>
                            <path fill="#FDFDFE" d="M81.3,149.5c-1.2,0-2.1-0.9-2.1-2c0-1.1,0.9-2,2-2c1.2,0,2.1,0.9,2.1,2C83.3,148.7,82.4,149.5,81.3,149.5z"
                            />
                        </g>
	                </svg>